<?xml version="1.0" encoding="utf-8"?>
<!-- Generator: Adobe Illustrator 26.0.1, SVG Export Plug-In . SVG Version: 6.00 Build 0)  -->
<svg version="1.1"
	 id="svg5" xmlns:inkscape="http://www.inkscape.org/namespaces/inkscape" xmlns:sodipodi="http://sodipodi.sourceforge.net/DTD/sodipodi-0.dtd" xmlns:svg="http://www.w3.org/2000/svg"
	 xmlns="http://www.w3.org/2000/svg" xmlns:xlink="http://www.w3.org/1999/xlink" x="0px" y="0px" viewBox="0 0 184.1 221.1"
	 style="enable-background:new 0 0 184.1 221.1;" xml:space="preserve">
<style type="text/css">
	.st0{fill-rule:evenodd;clip-rule:evenodd;fill:#FFFFFF;}
	.st1{fill-rule:evenodd;clip-rule:evenodd;fill:#FF6000;}
</style>
<sodipodi:namedview  bordercolor="#000000" borderopacity="0.25" id="namedview7" inkscape:deskcolor="#d1d1d1" inkscape:document-units="mm" inkscape:pagecheckerboard="0" inkscape:pageopacity="0.0" inkscape:showpageshadow="2" pagecolor="#ffffff" showgrid="true">
	<inkscape:grid  id="grid1523" originx="0" originy="0" type="xygrid"></inkscape:grid>
</sodipodi:namedview>
<g id="layer1" transform="translate(-0.01834302,0.85224602)" inkscape:groupmode="layer" inkscape:label="Layer 1">
	<g id="text234" transform="matrix(0.61763204,0,0,0.56455816,-53.576609,-35.950428)">
		
			<g id="g1681" transform="translate(0.09914399,-0.10846448)" inkscape:export-filename="Eletech logo.svg" inkscape:export-xdpi="112.57772" inkscape:export-ydpi="112.57772">
			<g id="g1883">
				<path id="path1676" class="st0" d="M162.1,312.5v110.2h207.1c-4.3-14.3-7.9-30.3-10.8-47.5h-139l0,0l0,0L162.1,312.5z"/>
				<path id="path1674" class="st0" d="M162.1,147.1V291l57.3,62.7v-55.2h132c-0.1-5.6-0.2-11.2-0.2-16.7c0-10.3,0.3-20.6,0.8-30.8
					H219.4v-41.1L162.1,147.1z"/>
				<path id="path504" class="st1" d="M175.8,140.6l43.6,47.7h139c2.9-17.3,6.5-33.4,10.8-47.7C369.2,140.6,175.8,140.6,175.8,140.6
					z"/>
			</g>
		</g>
	</g>
</g>
</svg>
