<?xml version="1.0" encoding="utf-8"?>
<!-- Generator: Adobe Illustrator 26.0.1, SVG Export Plug-In . SVG Version: 6.00 Build 0)  -->
<svg version="1.1"
	 id="svg5" xmlns:inkscape="http://www.inkscape.org/namespaces/inkscape" xmlns:sodipodi="http://sodipodi.sourceforge.net/DTD/sodipodi-0.dtd" xmlns:svg="http://www.w3.org/2000/svg"
	 xmlns="http://www.w3.org/2000/svg" xmlns:xlink="http://www.w3.org/1999/xlink" x="0px" y="0px" viewBox="0 0 1005.2 164.5"
	 style="enable-background:new 0 0 1005.2 164.5;" xml:space="preserve">
<style type="text/css">
	.st0{fill-rule:evenodd;clip-rule:evenodd;fill:#FFFFFF;}
	.st1{fill-rule:evenodd;clip-rule:evenodd;fill:#FF6000;}
</style>
<sodipodi:namedview  bordercolor="#000000" borderopacity="0.25" id="namedview7" inkscape:deskcolor="#d1d1d1" inkscape:document-units="mm" inkscape:pagecheckerboard="0" inkscape:pageopacity="0.0" inkscape:showpageshadow="2" pagecolor="#ffffff" showgrid="true">
	<inkscape:grid  id="grid1523" originx="0" originy="0" type="xygrid"></inkscape:grid>
</sodipodi:namedview>
<g id="layer1" transform="translate(-0.01834302,0.85224602)" inkscape:groupmode="layer" inkscape:label="Layer 1">
	<g id="text234" transform="matrix(0.61763204,0,0,0.56455816,-53.576609,-35.950428)">
		
			<g id="g1681" transform="translate(0.09914399,-0.10846448)" inkscape:export-filename="Eletech logo.svg" inkscape:export-xdpi="112.57772" inkscape:export-ydpi="112.57772">
			<g id="g1883">
				<path id="path1676" class="st0" d="M86.7,238.5v110.2h207.1c-4.3-14.3-7.9-30.3-10.8-47.5H144v0l0,0L86.7,238.5z"/>
				<path id="path1674" class="st0" d="M86.7,73.1V217l57.3,62.7v-55.2h132c-0.1-5.6-0.2-11.2-0.2-16.7c0-10.3,0.3-20.6,0.8-30.8
					H144v-41.1L86.7,73.1z"/>
				<path id="path504" class="st1" d="M100.4,66.6l43.6,47.7h139c2.9-17.3,6.5-33.4,10.8-47.7H100.4z"/>
			</g>
		</g>
		<g id="text2169" transform="scale(0.95606946,1.0459491)">
			<path id="path2949" class="st0" d="M345.1,333.5V66.2h54.4v221.8h135.3v45.4L345.1,333.5z"/>
			<path id="path2951" class="st0" d="M573.6,333.5V64h199.8v45.6H628v59.7h135.3v45.4H628v73.3h150.5v45.4H573.6z"/>
			<path id="path2953" class="st0" d="M885.3,333.5V109.6h-80V64h214.1v45.6h-79.8v223.9H885.3z"/>
			<path id="path2955" class="st0" d="M1054.6,333.5V64h199.8v45.6H1109v59.7h135.3v45.4H1109v73.3h150.5v45.4H1054.6z"/>
			<path id="path2957" class="st0" d="M1478,234.4l52.8,16.7c-8.1,29.4-21.6,51.3-40.4,65.6c-18.7,14.2-42.6,21.3-71.5,21.3
				c-35.8,0-65.2-12.2-88.2-36.6c-23-24.5-34.6-58-34.6-100.4c0-44.8,11.6-79.6,34.7-104.4c23.2-24.9,53.6-37.3,91.3-37.3
				c33,0,59.7,9.7,80.3,29.2c12.3,11.5,21.4,28.1,27.6,49.6l-53.9,12.9c-3.2-14-9.9-25-20-33.1c-10-8.1-22.3-12.1-36.8-12.1
				c-20,0-36.2,7.2-48.7,21.5c-12.4,14.3-18.6,37.6-18.6,69.7c0,34.1,6.1,58.3,18.4,72.8c12.3,14.5,28.2,21.7,47.8,21.7
				c14.5,0,26.9-4.6,37.3-13.8C1466,268.6,1473.5,254.1,1478,234.4L1478,234.4z"/>
			<path id="path2959" class="st0" d="M1577.6,333.5V64h54.4v106.1h106.6V64h54.4v269.4h-54.4V215.7h-106.6v117.8H1577.6z"/>
		</g>
	</g>
</g>
</svg>
